<svg width="1024" height="1024" viewBox="0 0 1024 1024" fill="none" xmlns="http://www.w3.org/2000/svg">
<g clip-path="url(#clip0_1_33)">
<rect width="1024" height="1024" fill="white"/>
<rect width="1024" height="1024" fill="url(#paint0_linear_1_33)"/>
<path d="M370.605 76.8H653.395C748.195 76.8 789.69 77.1015 834.268 91.0671C880.017 107.928 916.071 143.982 932.932 189.73C946.898 234.301 947.2 275.81 947.2 370.605V653.395C947.2 748.196 946.898 789.691 932.932 834.27C916.071 880.019 880.015 916.073 834.269 932.925C789.691 946.898 748.199 947.2 653.395 947.2H370.605C275.8 947.2 234.301 946.898 189.732 932.925C143.985 916.073 107.929 880.019 91.0671 834.269C77.1015 789.69 76.8 748.195 76.8 653.395V370.605C76.8 275.811 77.1017 234.302 91.067 189.732C107.928 143.983 143.983 107.928 189.732 91.067C234.302 77.1017 275.803 76.8 370.605 76.8Z" stroke="white" stroke-width="17.0667"/>
<g filter="url(#filter0_d_1_33)">
<path d="M188.693 460.791H498.626C532.419 471.6 620.605 509.018 610.258 546.806C604.468 567.871 575.326 589.121 528.053 606.49C505.723 614.533 482.731 620.715 459.326 624.968C403.984 635.131 272.417 666.174 245.173 735.005C234.352 762.722 241.187 792.287 265.677 823.7C267.129 825.692 269.332 827.043 271.805 827.459C274.277 827.874 276.818 827.32 278.872 825.918C280.872 824.434 282.184 822.238 282.523 819.813C282.861 817.388 282.196 814.932 280.676 812.983C259.887 786.19 254.476 763 262.925 741.657C287.321 679.756 422.115 650.56 462.838 643.077C487.484 638.714 511.688 632.252 535.172 623.767C589.849 603.626 621.46 579.327 629.054 551.518C639.59 511.79 589.754 479.453 549.411 460.791H597.443C606.936 462.454 718.094 483.241 733.852 553.181C741.256 586.164 703.76 620.164 670.916 642.8C655.971 652.132 643.967 665.302 636.228 680.855C628.489 696.409 625.316 713.742 627.06 730.94C631.332 766.88 657.721 797.738 697.685 813.445C712.105 819.133 726.918 823.826 742.015 827.488C743.257 827.772 744.545 827.81 745.802 827.599C747.059 827.388 748.259 826.932 749.331 826.26C750.403 825.587 751.325 824.711 752.042 823.684C752.758 822.657 753.255 821.5 753.501 820.282C754.104 817.905 753.712 815.393 752.413 813.297C751.114 811.201 749.013 809.692 746.572 809.102C732.343 805.676 718.385 801.26 704.804 795.891C671.391 782.679 649.368 757.456 645.855 728.353C644.605 714.444 647.308 700.467 653.67 687.953C660.032 675.438 669.807 664.868 681.927 657.397C736.415 619.702 760.146 583.485 752.362 548.746C742.11 503.29 700.248 476.22 663.037 460.791H818.241C820.758 460.791 823.173 459.817 824.953 458.084C826.733 456.352 827.733 454.002 827.733 451.551C827.733 449.101 826.733 446.751 824.953 445.018C823.173 443.286 820.758 442.312 818.241 442.312H775.904L588.52 199.972C587.685 198.885 586.615 197.99 585.384 197.352C584.154 196.713 582.794 196.346 581.401 196.277C579.997 196.213 578.596 196.453 577.299 196.981C576.002 197.508 574.842 198.309 573.902 199.326L465.117 317.77L410.25 233.325C409.392 232.024 408.212 230.953 406.819 230.211C405.426 229.468 403.864 229.078 402.276 229.075C400.754 229.031 399.244 229.344 397.873 229.987C396.502 230.631 395.31 231.585 394.397 232.771L231.409 442.312H188.693C186.175 442.312 183.761 443.286 181.98 445.018C180.2 446.751 179.2 449.101 179.2 451.551C179.2 454.002 180.2 456.352 181.98 458.084C183.761 459.817 186.175 460.791 188.693 460.791ZM401.516 254.483L489.892 389.742C491.239 391.813 493.376 393.278 495.833 393.815C498.289 394.352 500.865 393.917 502.992 392.606C505.119 391.295 506.625 389.216 507.176 386.825C507.728 384.434 507.282 381.927 505.935 379.857L475.653 333.661L580.072 220.113L751.888 442.405H254.856L401.516 254.483Z" fill="black"/>
<path d="M188.693 460.791H498.626C532.419 471.6 620.605 509.018 610.258 546.806C604.468 567.871 575.326 589.121 528.053 606.49C505.723 614.533 482.731 620.715 459.326 624.968C403.984 635.131 272.417 666.174 245.173 735.005C234.352 762.722 241.187 792.287 265.677 823.7C267.129 825.692 269.332 827.043 271.805 827.459C274.277 827.874 276.818 827.32 278.872 825.918C280.872 824.434 282.184 822.238 282.523 819.813C282.861 817.388 282.196 814.932 280.676 812.983C259.887 786.19 254.476 763 262.925 741.657C287.321 679.756 422.115 650.56 462.838 643.077C487.484 638.714 511.688 632.252 535.172 623.767C589.849 603.626 621.46 579.327 629.054 551.518C639.59 511.79 589.754 479.453 549.411 460.791H597.443C606.936 462.454 718.094 483.241 733.852 553.181C741.256 586.164 703.76 620.164 670.916 642.8C655.971 652.132 643.967 665.302 636.228 680.855C628.489 696.409 625.316 713.742 627.06 730.94C631.332 766.88 657.721 797.738 697.685 813.445C712.105 819.133 726.918 823.826 742.015 827.488C743.257 827.772 744.545 827.81 745.802 827.599C747.059 827.388 748.259 826.932 749.331 826.26C750.403 825.587 751.325 824.711 752.042 823.684C752.758 822.657 753.255 821.5 753.501 820.282C754.104 817.905 753.712 815.393 752.413 813.297C751.114 811.201 749.013 809.692 746.572 809.102C732.343 805.676 718.385 801.26 704.804 795.891C671.391 782.679 649.368 757.456 645.855 728.353C644.605 714.444 647.308 700.467 653.67 687.953C660.032 675.438 669.807 664.868 681.927 657.397C736.415 619.702 760.146 583.485 752.362 548.746C742.11 503.29 700.248 476.22 663.037 460.791H818.241C820.758 460.791 823.173 459.817 824.953 458.084C826.733 456.352 827.733 454.002 827.733 451.551C827.733 449.101 826.733 446.751 824.953 445.018C823.173 443.286 820.758 442.312 818.241 442.312H775.904L588.52 199.972C587.685 198.885 586.615 197.99 585.384 197.352C584.154 196.713 582.794 196.346 581.401 196.277C579.997 196.213 578.596 196.453 577.299 196.981C576.002 197.508 574.842 198.309 573.902 199.326L465.117 317.77L410.25 233.325C409.392 232.024 408.212 230.953 406.819 230.211C405.426 229.468 403.864 229.078 402.276 229.075C400.754 229.031 399.244 229.344 397.873 229.987C396.502 230.631 395.31 231.585 394.397 232.771L231.409 442.312H188.693C186.175 442.312 183.761 443.286 181.98 445.018C180.2 446.751 179.2 449.101 179.2 451.551C179.2 454.002 180.2 456.352 181.98 458.084C183.761 459.817 186.175 460.791 188.693 460.791ZM401.516 254.483L489.892 389.742C491.239 391.813 493.376 393.278 495.833 393.815C498.289 394.352 500.865 393.917 502.992 392.606C505.119 391.295 506.625 389.216 507.176 386.825C507.728 384.434 507.282 381.927 505.935 379.857L475.653 333.661L580.072 220.113L751.888 442.405H254.856L401.516 254.483Z" stroke="black" stroke-width="25.6"/>
</g>
<path d="M290.133 665.6C292.567 665.6 294.901 664.605 296.621 662.834C298.342 661.063 299.309 658.661 299.309 656.156V607.332C309.58 605.005 318.653 598.855 324.788 590.063C330.923 581.271 333.687 570.458 332.55 559.697C331.412 548.936 326.453 538.987 318.625 531.759C310.797 524.531 300.65 520.533 290.133 520.533C279.617 520.533 269.47 524.531 261.642 531.759C253.813 538.987 248.855 548.936 247.717 559.697C246.58 570.458 249.344 581.271 255.478 590.063C261.613 598.855 270.687 605.005 280.958 607.332V656.156C280.958 658.661 281.924 661.063 283.645 662.834C285.366 664.605 287.7 665.6 290.133 665.6ZM265.818 564.458C265.818 559.486 267.252 554.625 269.938 550.492C272.624 546.359 276.441 543.139 280.906 541.241C285.371 539.343 290.284 538.851 295.021 539.828C299.758 540.804 304.106 543.206 307.516 546.729C310.926 550.251 313.243 554.736 314.174 559.615C315.106 564.494 314.609 569.548 312.748 574.137C310.886 578.725 307.744 582.642 303.718 585.391C299.692 588.14 294.964 589.597 290.133 589.578C286.932 589.578 283.763 588.928 280.807 587.664C277.851 586.401 275.166 584.549 272.907 582.215C270.648 579.881 268.859 577.111 267.642 574.064C266.426 571.017 265.806 567.752 265.818 564.458Z" fill="black"/>
<path d="M746.667 785.067C749.298 785.067 751.822 784.132 753.683 782.469C755.544 780.806 756.589 778.55 756.589 776.198V741.611C765.59 739.459 773.409 734.455 778.588 727.532C783.767 720.609 785.953 712.239 784.739 703.982C783.525 695.725 778.993 688.145 771.989 682.653C764.984 677.161 755.984 674.133 746.667 674.133C737.349 674.133 728.349 677.161 721.345 682.653C714.34 688.145 709.808 695.725 708.594 703.982C707.38 712.239 709.566 720.609 714.745 727.532C719.924 734.455 727.743 739.459 736.744 741.611V776.198C736.744 778.55 737.79 780.806 739.65 782.469C741.511 784.132 744.035 785.067 746.667 785.067ZM728.112 708.531C728.112 705.251 729.2 702.044 731.239 699.317C733.278 696.59 736.176 694.464 739.566 693.209C742.957 691.954 746.687 691.625 750.287 692.265C753.886 692.905 757.192 694.485 759.787 696.804C762.382 699.123 764.149 702.078 764.865 705.295C765.581 708.512 765.214 711.847 763.809 714.877C762.405 717.908 760.027 720.498 756.975 722.32C753.924 724.142 750.337 725.115 746.667 725.115C741.797 725.045 737.154 723.267 733.738 720.165C730.323 717.062 728.409 712.884 728.409 708.531H728.112Z" fill="black"/>
<path d="M465.067 597.333C467.613 597.333 470.055 596.366 471.855 594.644C473.655 592.923 474.667 590.588 474.667 588.153V550.145C483.716 547.911 491.603 542.597 496.848 535.199C502.094 527.802 504.338 518.829 503.161 509.962C501.983 501.095 497.464 492.943 490.451 487.035C483.438 481.126 474.413 477.867 465.067 477.867C455.72 477.867 446.695 481.126 439.682 487.035C432.669 492.943 428.151 501.095 426.973 509.962C425.795 518.829 428.039 527.802 433.285 535.199C438.531 542.597 446.417 547.911 455.467 550.145V588.153C455.467 590.588 456.478 592.923 458.278 594.644C460.079 596.366 462.521 597.333 465.067 597.333ZM445.867 514.708C445.867 511.077 446.993 507.527 449.103 504.507C451.212 501.488 454.211 499.134 457.719 497.745C461.228 496.355 465.088 495.991 468.812 496.7C472.537 497.408 475.958 499.157 478.643 501.725C481.328 504.293 483.157 507.564 483.898 511.126C484.639 514.688 484.258 518.38 482.805 521.735C481.352 525.09 478.891 527.957 475.734 529.975C472.576 531.992 468.864 533.069 465.067 533.069C462.505 533.094 459.964 532.628 457.593 531.699C455.222 530.77 453.07 529.397 451.263 527.66C449.455 525.924 448.03 523.858 447.07 521.587C446.111 519.315 445.636 516.883 445.675 514.433L445.867 514.708Z" fill="black"/>
<path d="M802.133 486.4C793.924 486.377 785.982 489.374 779.772 494.841C773.563 500.308 769.503 507.875 768.342 516.148C767.181 524.422 768.997 532.843 773.454 539.861C777.912 546.879 784.711 552.021 792.599 554.338V587.628C792.599 590.202 793.604 592.671 795.392 594.491C797.18 596.311 799.605 597.333 802.133 597.333C804.662 597.333 807.087 596.311 808.875 594.491C810.663 592.671 811.668 590.202 811.668 587.628V554.338C819.555 552.021 826.355 546.879 830.812 539.861C835.27 532.843 837.086 524.422 835.925 516.148C834.764 507.875 830.704 500.308 824.494 494.841C818.285 489.374 810.343 486.377 802.133 486.4ZM802.133 536.48C799.154 536.48 796.242 535.581 793.764 533.896C791.287 532.211 789.356 529.816 788.216 527.014C787.076 524.212 786.778 521.129 787.359 518.154C787.94 515.179 789.375 512.447 791.482 510.302C793.588 508.158 796.272 506.697 799.195 506.106C802.117 505.514 805.146 505.818 807.898 506.978C810.651 508.139 813.003 510.104 814.659 512.626C816.314 515.148 817.197 518.113 817.197 521.146C817.197 525.213 815.61 529.113 812.785 531.989C809.96 534.865 806.129 536.48 802.133 536.48Z" fill="black"/>
</g>
<defs>
<filter id="filter0_d_1_33" x="132.267" y="183.467" width="742.4" height="725.333" filterUnits="userSpaceOnUse" color-interpolation-filters="sRGB">
<feFlood flood-opacity="0" result="BackgroundImageFix"/>
<feColorMatrix in="SourceAlpha" type="matrix" values="0 0 0 0 0 0 0 0 0 0 0 0 0 0 0 0 0 0 127 0" result="hardAlpha"/>
<feOffset dy="34.1333"/>
<feGaussianBlur stdDeviation="17.0667"/>
<feComposite in2="hardAlpha" operator="out"/>
<feColorMatrix type="matrix" values="0 0 0 0 0 0 0 0 0 0 0 0 0 0 0 0 0 0 0.25 0"/>
<feBlend mode="normal" in2="BackgroundImageFix" result="effect1_dropShadow_1_33"/>
<feBlend mode="normal" in="SourceGraphic" in2="effect1_dropShadow_1_33" result="shape"/>
</filter>
<linearGradient id="paint0_linear_1_33" x1="512" y1="0" x2="512" y2="1024" gradientUnits="userSpaceOnUse">
<stop stop-color="#0D7CB6"/>
<stop offset="1" stop-color="#2765D9"/>
</linearGradient>
<clipPath id="clip0_1_33">
<rect width="1024" height="1024" fill="white"/>
</clipPath>
</defs>
</svg>
